# xmcd
#
# Track frame offsets:
#	150
#	13172
#	31458
#	50170
#	64409
#	78069
#	90529
#	109412
#	123571
#	137739
#	152784
#	169070
#	186227
#	202184
#	214774
#	226337
#	241536
#	254700
#
# Disc length: 3613 seconds
#
# Revision: 1
# Processed by: cddbd v1.5.1PL0 Copyright (c) Steve Scherf et al.
# Submitted via: audiograbber 1.81.03
#
DISCID=060e1b12
DTITLE=Kapela Gorole - Goralska zabawa 4
DYEAR=1900
DGENRE=
TTITLE0=Dwanascie listeckow
TTITLE1=Halina
TTITLE2=Jestem sobie
TTITLE3=W lagrodecku
TTITLE4=Nad potokiem
TTITLE5=Cyrwone jagody
TTITLE6=Jo do lasu
TTITLE7=Lato, lato
TTITLE8=Sadzi dziywce
TTITLE9=Moje koniusie
TTITLE10=Kie jo pasla
TTITLE11=Zaplakane ocy
TTITLE12=Zagraj mi piekny cyganie
TTITLE13=Jako jo niescynsliwo
TTITLE14=Gorzolecko, lokowitko
TTITLE15=Moja zona w kraju
TTITLE16=Hej mamecko, mamecko
TTITLE17=Na wysokim drzewie
EXTD=
EXTT0=
EXTT1=
EXTT2=
EXTT3=
EXTT4=
EXTT5=
EXTT6=
EXTT7=
EXTT8=
EXTT9=
EXTT10=
EXTT11=
EXTT12=
EXTT13=
EXTT14=
EXTT15=
EXTT16=
EXTT17=
PLAYORDER=
